<?xml version="1.0" encoding="utf-8"?>
<!-- Generator: Adobe Illustrator 27.8.0, SVG Export Plug-In . SVG Version: 6.00 Build 0)  -->
<svg version="1.1" xmlns="http://www.w3.org/2000/svg" xmlns:xlink="http://www.w3.org/1999/xlink" x="0px" y="0px"
	 viewBox="0 0 518.7 209.8" style="enable-background:new 0 0 518.7 209.8;" xml:space="preserve">
<style type="text/css">
	.st0{display:none;fill:#3C3C3B;}
	.st1{fill:#FCF6BF;}
</style>
<g id="Ebene_1">
	<rect x="-351.5" y="-189.3" class="st0" width="1509.3" height="518.7"/>
	<g>
		<rect x="210.5" y="73.4" class="st1" width="10.9" height="63.2"/>
		<path class="st1" d="M157.7,136.5V73.3h27.9c4.2,0,8,0.8,11,2.5c3.1,1.6,5.5,4,7.2,7c1.7,3,2.6,6.5,2.6,10.4
			c0,3.8-0.9,7.2-2.6,10.2c-1.7,3-4.1,5.4-7.3,7.1c-3.1,1.7-6.8,2.6-11,2.6h-16.3v23.5H157.7z M169.3,102.9h14.5
			c2.2,0,4.2-0.4,5.8-1.2c1.6-0.8,2.9-2,3.8-3.4c0.9-1.5,1.3-3.2,1.3-5.1c0-2.9-1-5.3-2.9-7.1c-1.9-1.8-4.6-2.7-7.9-2.7h-14.5V102.9
			z"/>
		<path class="st1" d="M307.2,136.5v-28c0-2.8-0.9-5.2-2.6-7c-1.7-1.8-4-2.7-6.8-2.7c-2.5,0-4.7,0.7-6.5,2.1
			c-1.8,1.4-3.2,3.4-4.1,5.9c-0.9,2.6-1.4,5.7-1.4,9.3v20.4h-10.9V89.9h10.9v4c0,1.4,0.5,1.7,1,1.7c0.6,0,1.1-0.5,1.3-0.8
			c1.3-1.4,2.8-2.5,4.5-3.5c2.6-1.4,5.5-2.1,8.6-2.1c3.3,0,6.2,0.7,8.8,2.1c2.5,1.4,4.5,3.3,5.9,5.8c1.4,2.5,2.1,5.5,2.1,8.8v30.6
			H307.2z"/>
		<path class="st1" d="M373,137.3c-4.8,0-9.1-1.1-12.6-3.4c-3.5-2.2-6.2-5.2-8-8.8c-1.8-3.6-2.7-7.6-2.7-11.9
			c0-4.2,0.9-8.2,2.6-11.8c1.7-3.6,4.3-6.6,7.8-8.8c3.5-2.2,7.7-3.4,12.5-3.4c4.8,0,9,1.1,12.4,3.2c3.4,2.1,6,5,7.7,8.4
			c1.7,3.5,2.6,7.2,2.6,11.1c0,1.3-0.1,2.6-0.2,3.9h-34.4l0,0.3c0.4,3.3,1.5,6,3.3,8c2.3,2.7,5.5,4.1,9.5,4.1c2.7,0,5-0.6,6.9-1.8
			c1.8-1.1,3.1-2.8,3.7-4.8h10.8c-0.5,3.1-1.7,5.9-3.7,8.2c-2,2.4-4.6,4.3-7.6,5.5C380.4,136.6,376.9,137.3,373,137.3z M372.5,97.5
			c-2.5,0-4.7,0.6-6.6,1.8c-1.8,1.2-3.2,3-4.2,5.4c-0.3,0.8-0.6,1.7-0.8,2.8l-0.1,0.3h22.5l0-0.3c-0.2-1.9-0.7-3.6-1.6-5.2
			c-0.9-1.5-2.1-2.7-3.7-3.6C376.5,97.9,374.6,97.5,372.5,97.5z"/>
		<path class="st1" d="M242.2,137.3c-3.1,0-5.9-0.6-8.3-1.7c-2.4-1.1-4.4-2.7-5.7-4.8c-1.4-2-2.1-4.3-2.1-6.9c0-4,1.4-7.3,4.2-9.7
			c2.8-2.5,6.8-4,12-4.7l9.5-1.3c1.3-0.2,2.3-0.6,3-1.3c0.7-0.7,1.1-1.6,1.1-2.7c0-1.9-0.9-3.5-2.6-4.8c-1.7-1.2-3.9-1.9-6.6-1.9
			c-2.7,0-5,0.7-6.8,2.1c-1.7,1.3-2.7,3.2-2.9,5.5h-10.5c0.4-3.1,1.4-5.9,3.1-8.3c1.7-2.4,4.1-4.3,6.9-5.6c2.9-1.3,6.3-2,10.2-2
			c4.1,0,7.6,0.7,10.6,2.2c3,1.5,5.3,3.6,7,6.3c1.6,2.7,2.5,5.9,2.5,9.5v16.6c0,1.4,0.3,2.4,0.8,3.1c0.5,0.7,1.4,1,2.5,1
			c0.4,0,0.7,0,1.2-0.1v8.8c-1.8,0.3-3.6,0.5-5.2,0.5c-2.4,0-4.4-0.6-6-1.7c-1-0.7-1.7-1.6-2.2-2.7c-0.2-0.6-0.7-0.9-1.2-0.9
			c-0.4,0-0.8,0.2-1.1,0.5c-1,1.2-2.4,2.2-4.1,3C248.7,136.7,245.6,137.3,242.2,137.3z M244,116.7c-2.3,0.4-4.1,1.1-5.3,2.2
			c-1.2,1.1-1.8,2.6-1.8,4.4c0,1.7,0.7,3.1,2,4.2c1.3,1,3.1,1.6,5.2,1.6c3.7,0,6.6-1.2,8.8-3.5c2.1-2.3,3.2-5.4,3.2-9.1v-1.7
			L244,116.7z"/>
		<path class="st1" d="M420.6,137.3c-4.6,0-8.6-1-11.9-3c-3.3-2-5.9-4.8-7.7-8.5c-1.8-3.6-2.7-7.9-2.7-12.6c0-4.7,0.9-8.9,2.7-12.6
			c1.8-3.6,4.4-6.4,7.7-8.4c3.3-2,7.2-3,11.7-3c2.8,0,5.4,0.6,7.8,1.7c1.8,0.8,3.3,1.8,4.5,3.1c0.2,0.2,0.5,0.4,0.8,0.4
			c0.2,0,0.4-0.1,0.6-0.2c0.1-0.1,0.3-0.4,0.3-0.8V73.1h10.9v63.4h-10.9v-3.8c0-0.4-0.3-0.8-0.8-0.8c-0.2,0-0.4,0.1-0.6,0.3
			c-1.1,1.3-2.5,2.3-4.4,3.2C426.2,136.7,423.5,137.3,420.6,137.3z M422.2,98.6c-2.5,0-4.8,0.6-6.7,1.8c-1.9,1.2-3.4,2.9-4.5,5.2
			c-1.1,2.2-1.6,4.8-1.6,7.7s0.5,5.5,1.6,7.7c1.1,2.2,2.6,4,4.5,5.2c1.9,1.2,4.2,1.8,6.7,1.8c2.5,0,4.8-0.6,6.7-1.8
			c1.9-1.2,3.5-2.9,4.5-5.2c1-2.2,1.6-4.8,1.6-7.8c0-2.9-0.5-5.5-1.6-7.7c-1-2.2-2.6-4-4.5-5.2C427,99.2,424.7,98.6,422.2,98.6z"/>
		<path class="st1" d="M344.1,137.3c-5,0-9-1.3-11.9-3.9c-2.9-2.6-4.4-6.4-4.4-11.4v-23h-8v-9h5.1c2.1,0,2.8-0.3,2.9-2.9l0-13.3
			l10.9,0v13.3c0,1.1,0.1,1.9,0.6,2.3c0.4,0.4,1.1,0.5,2.1,0.5l8.3,0v9h-11v21.8c0,2.2,0.6,4,1.9,5.3c1.3,1.3,2.9,1.9,4.9,1.9
			c0.8,0,1.6-0.1,2.4-0.2c0.6-0.1,1.2-0.2,1.8-0.4v9.3C348,137.1,346.2,137.3,344.1,137.3z"/>
	</g>
	<path class="st1" d="M104.6,74.7c0.7,0.8,1,1.7,1,2.9l0,11.1c0,2.7-0.6,4.2-2.5,5c-5.3,2.3-8.3,7.7-7.3,13.2c0.8,4,3.6,7.5,7.5,8.8
		c4.2,1.5,8.8,0.6,12-2.3c2.5-2.2,3.9-5.4,3.9-8.8c0-4.7-2.7-8.8-6.9-10.8c-2-0.9-3-2.1-3-5.2l0-11c0-1.3,0.3-2.3,1.2-3.3
		c1.2-1.3,2.6-1.7,4.4-1.4c7.1,1.2,13.4,5.6,17.9,11.3c4.6,5.7,7.2,13,7.2,20.3c0,9.2-4,18-10.8,24.2c-7,6.2-16,9.1-25.3,8.1
		c-14.8-1.7-26.8-13.6-28.5-28.4c-1.9-16.5,8.8-31.7,24.9-35.4C102.9,72.5,104.4,74.4,104.6,74.7z M143.1,101.8
		c-1.4-17.3-15.5-31.4-32.8-32.8c-10.5-0.8-20.8,3-28.3,10.4c-8.7,8.7-12.4,21.4-9.5,33.8c3.8,15.9,18.2,27.3,34.6,27.4
		c0.1,0,0.1,0,0.2,0c9.5,0,18.6-3.7,25.4-10.5C140.2,122.6,144,112.3,143.1,101.8"/>
</g>
<g id="Ebene_2">
</g>
</svg>
